<?xml version='1.0' encoding='UTF-8' standalone='no'?>
<!-- Created with Fritzing (http://www.fritzing.org/) -->
<svg xmlns="http://www.w3.org/2000/svg" width="8.96287in" x="0in" version="1.2" y="0in"  height="9.18912in" viewBox="0 0 645.327 661.616" baseProfile="tiny" xmlns:svg="http://www.w3.org/2000/svg">
 <g  id="watermark">
  <g >
   <path fill="#8C8C8C"  d="M537.51,659.288L535.585,653.724L535.55,653.724c0.017,0.214,0.032,0.427,0.044,0.64c0.012,0.183,0.021,0.375,0.028,0.574c0.007,0.203,0.011,0.385,0.011,0.551l0,3.8L534.885,659.289L534.885,652.933l1.199,0l1.791,5.181l0.025,0l1.8,-5.181L540.9,652.933l0,6.354L540.091,659.287l0,-3.854c0,-0.15,0.003,-0.324,0.009,-0.518s0.013,-0.38,0.021,-0.557c0.012,-0.207,0.021,-0.416,0.029,-0.625L540.118,653.733L538.174,659.288L537.51,659.288z"/>
   <path fill="#8C8C8C"  d="M545.21,659.288l-0.16,-0.661l-0.035,0c-0.095,0.131,-0.19,0.243,-0.286,0.338c-0.095,0.095,-0.2,0.172,-0.313,0.231c-0.113,0.062,-0.239,0.106,-0.378,0.136c-0.141,0.028,-0.3,0.042,-0.482,0.042c-0.2,0,-0.384,-0.026,-0.552,-0.084c-0.168,-0.057,-0.314,-0.144,-0.438,-0.261c-0.122,-0.116,-0.219,-0.265,-0.288,-0.443S542.174,658.198,542.174,657.953c0,-0.475,0.167,-0.841,0.501,-1.095c0.335,-0.256,0.845,-0.394,1.528,-0.418l0.799,-0.029l0,-0.301c0,-0.193,-0.021,-0.356,-0.063,-0.486s-0.103,-0.234,-0.183,-0.314s-0.178,-0.138,-0.295,-0.172c-0.117,-0.035,-0.251,-0.052,-0.402,-0.052c-0.241,0,-0.464,0.034,-0.671,0.104c-0.207,0.068,-0.407,0.152,-0.597,0.25L542.512,654.847c0.214,-0.117,0.453,-0.217,0.717,-0.298c0.264,-0.079,0.54,-0.12,0.83,-0.12c0.296,0,0.551,0.029,0.768,0.09c0.216,0.059,0.395,0.151,0.534,0.28c0.141,0.13,0.247,0.294,0.316,0.494c0.07,0.199,0.104,0.44,0.104,0.726l0,3.269L545.21,659.288L545.21,659.288zM543.759,658.737c0.178,0,0.341,-0.028,0.491,-0.084c0.149,-0.055,0.282,-0.138,0.391,-0.249c0.11,-0.111,0.196,-0.252,0.258,-0.422c0.063,-0.17,0.094,-0.369,0.094,-0.599l0,-0.43l-0.621,0.03c-0.262,0.012,-0.48,0.041,-0.656,0.086c-0.175,0.047,-0.317,0.113,-0.423,0.193c-0.105,0.084,-0.183,0.185,-0.229,0.301c-0.046,0.117,-0.068,0.25,-0.068,0.398c0,0.268,0.069,0.462,0.211,0.586C543.346,658.674,543.53,658.737,543.759,658.737z"/>
   <path fill="#8C8C8C"  d="M550.192,658.649l-0.034,0c-0.063,0.099,-0.139,0.191,-0.224,0.281c-0.085,0.088,-0.184,0.165,-0.296,0.231c-0.111,0.066,-0.237,0.118,-0.376,0.156c-0.139,0.037,-0.295,0.056,-0.47,0.056c-0.271,0,-0.517,-0.051,-0.738,-0.154c-0.223,-0.105,-0.416,-0.262,-0.575,-0.469s-0.282,-0.464,-0.369,-0.771c-0.087,-0.309,-0.13,-0.664,-0.13,-1.069c0,-0.408,0.043,-0.767,0.13,-1.076c0.086,-0.31,0.209,-0.567,0.369,-0.774c0.159,-0.209,0.352,-0.367,0.575,-0.473c0.222,-0.105,0.469,-0.158,0.738,-0.158c0.171,0,0.327,0.02,0.466,0.057s0.264,0.088,0.376,0.152c0.112,0.063,0.211,0.137,0.297,0.221s0.163,0.172,0.227,0.266l0.052,0c-0.009,-0.1,-0.018,-0.191,-0.026,-0.283c-0.006,-0.074,-0.012,-0.152,-0.018,-0.232c-0.005,-0.078,-0.009,-0.143,-0.009,-0.188L550.157,652.525l0.792,0l0,6.763l-0.641,0L550.192,658.649zM548.944,658.72c0.221,0,0.407,-0.033,0.56,-0.102c0.151,-0.065,0.274,-0.168,0.37,-0.304c0.094,-0.136,0.163,-0.308,0.209,-0.512c0.044,-0.204,0.069,-0.442,0.076,-0.716l0,-0.177c0,-0.292,-0.02,-0.552,-0.059,-0.78c-0.04,-0.229,-0.105,-0.418,-0.2,-0.574c-0.094,-0.154,-0.219,-0.271,-0.376,-0.351c-0.156,-0.08,-0.352,-0.119,-0.586,-0.119c-0.391,0,-0.679,0.157,-0.861,0.474c-0.185,0.315,-0.277,0.771,-0.277,1.359c0,0.605,0.092,1.058,0.277,1.354C548.257,658.57,548.547,658.72,548.944,658.72z"/>
   <path fill="#8C8C8C"  d="M554.346,659.374c-0.318,0,-0.609,-0.053,-0.874,-0.16c-0.263,-0.106,-0.49,-0.264,-0.68,-0.469c-0.19,-0.207,-0.338,-0.461,-0.442,-0.766c-0.104,-0.306,-0.156,-0.651,-0.156,-1.045s0.049,-0.744,0.144,-1.055c0.096,-0.311,0.229,-0.574,0.405,-0.789c0.174,-0.216,0.382,-0.381,0.623,-0.492c0.241,-0.113,0.51,-0.17,0.802,-0.17c0.287,0,0.545,0.051,0.772,0.153c0.229,0.104,0.423,0.248,0.583,0.435c0.159,0.188,0.282,0.412,0.367,0.674c0.087,0.263,0.13,0.554,0.13,0.873l0,0.49l-3.008,0c0.015,0.559,0.133,0.971,0.354,1.234c0.222,0.263,0.551,0.396,0.987,0.396c0.149,0,0.285,-0.008,0.411,-0.021s0.248,-0.035,0.365,-0.063c0.118,-0.026,0.23,-0.063,0.342,-0.104s0.222,-0.089,0.334,-0.142l0,0.704c-0.116,0.055,-0.229,0.104,-0.341,0.144c-0.112,0.041,-0.226,0.074,-0.343,0.102c-0.117,0.024,-0.239,0.045,-0.365,0.056S554.495,659.374,554.346,659.374zM554.151,655.086c-0.331,0,-0.592,0.112,-0.783,0.339c-0.193,0.227,-0.307,0.555,-0.338,0.985l2.14,0c0,-0.196,-0.021,-0.378,-0.06,-0.541c-0.039,-0.164,-0.1,-0.304,-0.183,-0.419s-0.187,-0.205,-0.315,-0.27C554.484,655.116,554.331,655.086,554.151,655.086z"/>
   <path fill="#8C8C8C"  d="M563.16,659.288l-0.729,-2.678c-0.012,-0.053,-0.026,-0.111,-0.044,-0.176c-0.017,-0.065,-0.034,-0.136,-0.051,-0.207c-0.019,-0.072,-0.036,-0.146,-0.055,-0.223c-0.02,-0.074,-0.037,-0.148,-0.055,-0.222c-0.041,-0.169,-0.083,-0.341,-0.126,-0.521l-0.024,0c-0.041,0.182,-0.08,0.356,-0.117,0.524c-0.032,0.146,-0.066,0.294,-0.104,0.448c-0.037,0.152,-0.069,0.283,-0.103,0.391l-0.75,2.66l-0.917,0l-1.221,-4.771l0.83,0l0.57,2.539c0.029,0.129,0.059,0.27,0.086,0.423c0.028,0.151,0.057,0.303,0.082,0.452c0.026,0.148,0.05,0.288,0.07,0.421c0.02,0.132,0.037,0.238,0.049,0.322l0.025,0c0.015,-0.074,0.034,-0.177,0.059,-0.302c0.025,-0.126,0.052,-0.26,0.083,-0.399c0.031,-0.141,0.063,-0.28,0.093,-0.417c0.032,-0.139,0.063,-0.254,0.091,-0.351l0.778,-2.69l0.853,0l0.748,2.69c0.025,0.098,0.056,0.215,0.089,0.348c0.033,0.135,0.065,0.27,0.098,0.407c0.032,0.139,0.061,0.271,0.087,0.397c0.025,0.127,0.045,0.231,0.056,0.315l0.026,0c0.01,-0.074,0.022,-0.177,0.042,-0.302c0.02,-0.126,0.042,-0.265,0.067,-0.415c0.025,-0.149,0.054,-0.306,0.084,-0.464c0.03,-0.157,0.062,-0.306,0.094,-0.44L564.52,654.515l0.809,0l-1.234,4.771L563.16,659.286L563.16,659.288z"/>
   <path fill="#8C8C8C"  d="M566.115,653.225c0,-0.175,0.045,-0.3,0.133,-0.379c0.088,-0.078,0.197,-0.117,0.328,-0.117c0.063,0,0.123,0.011,0.181,0.028c0.056,0.019,0.104,0.049,0.147,0.089c0.042,0.041,0.075,0.092,0.101,0.154c0.023,0.063,0.037,0.137,0.037,0.224c0,0.168,-0.045,0.293,-0.138,0.376c-0.092,0.083,-0.2,0.123,-0.327,0.123c-0.131,0,-0.24,-0.04,-0.328,-0.12C566.161,653.522,566.115,653.395,566.115,653.225zM566.967,659.288l-0.791,0L566.176,654.515l0.791,0L566.967,659.288z"/>
   <path fill="#8C8C8C"  d="M569.923,658.727c0.052,0,0.111,-0.003,0.176,-0.01c0.066,-0.006,0.128,-0.013,0.189,-0.021c0.061,-0.009,0.116,-0.019,0.167,-0.031c0.051,-0.011,0.089,-0.021,0.115,-0.028l0,0.6c-0.037,0.017,-0.085,0.035,-0.144,0.052c-0.059,0.018,-0.122,0.033,-0.191,0.046c-0.068,0.015,-0.142,0.022,-0.217,0.03s-0.148,0.011,-0.221,0.011c-0.18,0,-0.347,-0.021,-0.5,-0.068c-0.153,-0.048,-0.286,-0.126,-0.397,-0.239c-0.111,-0.112,-0.198,-0.267,-0.263,-0.458c-0.063,-0.192,-0.095,-0.437,-0.095,-0.729L568.542,655.111l-0.674,0L567.868,654.759l0.673,-0.339l0.339,-0.999l0.456,0l0,1.096l1.199,0l0,0.596l-1.199,0l0,2.769c0,0.281,0.045,0.492,0.137,0.636C569.565,658.656,569.714,658.727,569.923,658.727z"/>
   <path fill="#8C8C8C"  d="M574.478,659.288l0,-3.073c0,-0.377,-0.076,-0.659,-0.228,-0.848c-0.152,-0.188,-0.391,-0.282,-0.715,-0.282c-0.234,0,-0.433,0.037,-0.592,0.111c-0.158,0.076,-0.286,0.188,-0.384,0.336c-0.097,0.148,-0.166,0.328,-0.208,0.544c-0.042,0.214,-0.063,0.461,-0.063,0.739l0,2.473l-0.791,0L571.497,652.525l0.791,0l0,2.008l-0.034,0.626l0.044,0c0.072,-0.124,0.158,-0.232,0.258,-0.323s0.209,-0.167,0.328,-0.229c0.118,-0.061,0.245,-0.104,0.378,-0.135c0.133,-0.027,0.27,-0.043,0.408,-0.043c0.531,0,0.93,0.139,1.198,0.416c0.268,0.275,0.401,0.719,0.401,1.326l0,3.117L574.478,659.288L574.478,659.288z"/>
  </g>
  <g >
   <path fill="#8C8C8C"  d="M596.238,659.272l-1.324,0L594.914,652.918l3.642,0l0,1.104l-2.316,0l0,1.639l2.156,0l0,1.1l-2.156,0L596.238,659.272L596.238,659.272z"/>
   <path fill="#8C8C8C"  d="M602.271,654.322c0.035,0,0.074,0.002,0.116,0.002c0.042,0.002,0.083,0.006,0.12,0.01c0.041,0.005,0.076,0.009,0.11,0.014c0.031,0.004,0.059,0.01,0.075,0.016l0,1.244c-0.022,-0.008,-0.056,-0.012,-0.095,-0.018c-0.04,-0.007,-0.083,-0.012,-0.128,-0.018c-0.045,-0.004,-0.09,-0.006,-0.133,-0.008c-0.044,-0.002,-0.08,-0.002,-0.108,-0.002c-0.171,0,-0.328,0.021,-0.472,0.064c-0.146,0.043,-0.269,0.113,-0.37,0.211s-0.183,0.225,-0.239,0.383c-0.057,0.157,-0.084,0.352,-0.084,0.581l0,2.474l-1.326,0L599.737,654.413l1.005,0l0.194,0.73l0.066,0c0.068,-0.125,0.145,-0.238,0.226,-0.34c0.081,-0.103,0.172,-0.189,0.272,-0.259c0.1,-0.071,0.212,-0.126,0.338,-0.165C601.964,654.342,602.11,654.322,602.271,654.322z"/>
   <path fill="#8C8C8C"  d="M603.589,653.157c0,-0.125,0.018,-0.228,0.056,-0.311c0.038,-0.084,0.089,-0.15,0.154,-0.2c0.065,-0.051,0.142,-0.086,0.229,-0.106c0.088,-0.02,0.184,-0.03,0.281,-0.03c0.099,0,0.191,0.01,0.277,0.03c0.088,0.02,0.164,0.055,0.229,0.106c0.066,0.05,0.117,0.116,0.156,0.2c0.04,0.083,0.059,0.186,0.059,0.311c0,0.122,-0.019,0.225,-0.059,0.309c-0.039,0.084,-0.09,0.151,-0.156,0.203c-0.063,0.05,-0.142,0.086,-0.229,0.108c-0.086,0.021,-0.18,0.032,-0.277,0.032c-0.099,0,-0.191,-0.012,-0.281,-0.032c-0.088,-0.021,-0.164,-0.059,-0.229,-0.108c-0.065,-0.051,-0.116,-0.119,-0.154,-0.203C603.608,653.382,603.589,653.279,603.589,653.157zM604.971,659.272l-1.325,0L603.646,654.413l1.325,0L604.971,659.272z"/>
   <path fill="#8C8C8C"  d="M608.38,658.303c0.13,0,0.254,-0.016,0.371,-0.045c0.117,-0.027,0.235,-0.064,0.357,-0.107l0,0.986c-0.124,0.063,-0.278,0.116,-0.463,0.157c-0.184,0.042,-0.385,0.063,-0.603,0.063c-0.211,0,-0.408,-0.024,-0.59,-0.073c-0.185,-0.05,-0.342,-0.137,-0.476,-0.259c-0.133,-0.123,-0.237,-0.288,-0.313,-0.495c-0.077,-0.208,-0.114,-0.468,-0.114,-0.781L606.549,655.408l-0.636,0L605.913,654.847l0.729,-0.443l0.383,-1.024l0.848,0l0,1.034l1.184,0l0,0.995l-1.184,0l0,2.343c0,0.188,0.048,0.327,0.141,0.417C608.107,658.258,608.229,658.303,608.38,658.303z"/>
   <path fill="#8C8C8C"  d="M613.253,659.272L609.68,659.272l0,-0.781l1.985,-3.064l-1.853,0L609.812,654.413l3.355,0l0,0.859l-1.92,2.985l2.004,0L613.253,659.272L613.253,659.272z"/>
   <path fill="#8C8C8C"  d="M614.192,653.157c0,-0.125,0.02,-0.228,0.057,-0.311c0.038,-0.084,0.09,-0.15,0.153,-0.2c0.065,-0.051,0.144,-0.086,0.23,-0.106s0.182,-0.03,0.28,-0.03c0.098,0,0.19,0.01,0.277,0.03c0.088,0.02,0.164,0.055,0.229,0.106c0.064,0.05,0.117,0.116,0.156,0.2c0.038,0.083,0.059,0.186,0.059,0.311c0,0.122,-0.021,0.225,-0.059,0.309c-0.039,0.084,-0.092,0.151,-0.156,0.203c-0.064,0.05,-0.143,0.086,-0.229,0.108c-0.086,0.021,-0.18,0.032,-0.277,0.032c-0.099,0,-0.192,-0.012,-0.28,-0.032c-0.088,-0.021,-0.165,-0.059,-0.23,-0.108c-0.063,-0.051,-0.115,-0.119,-0.153,-0.203C614.211,653.382,614.192,653.279,614.192,653.157zM615.574,659.272L614.25,659.272L614.25,654.413l1.324,0L615.574,659.272z"/>
   <path fill="#8C8C8C"  d="M621.224,659.272L619.9,659.272l0,-2.839c0,-0.351,-0.053,-0.613,-0.158,-0.787c-0.105,-0.176,-0.274,-0.265,-0.508,-0.265c-0.173,0,-0.317,0.035,-0.434,0.104c-0.116,0.07,-0.209,0.173,-0.276,0.31c-0.066,0.136,-0.115,0.304,-0.146,0.504c-0.029,0.2,-0.043,0.429,-0.043,0.687l0,2.286L617.01,659.272L617.01,654.413l1.012,0l0.181,0.621l0.073,0c0.069,-0.124,0.153,-0.23,0.253,-0.321c0.102,-0.089,0.21,-0.163,0.328,-0.221s0.245,-0.103,0.378,-0.128c0.136,-0.028,0.271,-0.043,0.409,-0.043c0.237,0,0.454,0.033,0.647,0.104c0.194,0.067,0.36,0.174,0.5,0.318c0.141,0.146,0.247,0.328,0.321,0.555c0.075,0.225,0.113,0.492,0.113,0.807l0,3.168L621.224,659.272L621.224,659.272z"/>
   <path fill="#8C8C8C"  d="M626.654,654.422l0,0.722l-0.708,0.221c0.059,0.1,0.1,0.201,0.122,0.308c0.021,0.106,0.033,0.22,0.033,0.343c0,0.246,-0.039,0.471,-0.116,0.676c-0.078,0.203,-0.193,0.379,-0.349,0.522c-0.152,0.146,-0.346,0.258,-0.578,0.337c-0.23,0.08,-0.5,0.119,-0.808,0.119c-0.067,0,-0.141,-0.003,-0.218,-0.012c-0.078,-0.007,-0.137,-0.015,-0.175,-0.021c-0.057,0.049,-0.104,0.101,-0.137,0.152c-0.033,0.054,-0.049,0.117,-0.049,0.193c0,0.061,0.018,0.108,0.056,0.146s0.087,0.065,0.147,0.087c0.06,0.022,0.133,0.036,0.214,0.044s0.165,0.012,0.251,0.012l0.756,0c0.236,0,0.446,0.025,0.631,0.081c0.186,0.055,0.342,0.135,0.472,0.246c0.129,0.109,0.229,0.249,0.299,0.419c0.069,0.169,0.104,0.372,0.104,0.605c0,0.275,-0.054,0.523,-0.164,0.745c-0.109,0.224,-0.274,0.41,-0.494,0.565c-0.219,0.154,-0.488,0.273,-0.813,0.355c-0.324,0.082,-0.699,0.123,-1.126,0.123c-0.329,0,-0.618,-0.031,-0.864,-0.094c-0.247,-0.063,-0.451,-0.15,-0.617,-0.27c-0.165,-0.116,-0.288,-0.258,-0.371,-0.424c-0.084,-0.164,-0.125,-0.353,-0.125,-0.561c0,-0.177,0.031,-0.33,0.093,-0.46c0.061,-0.131,0.143,-0.243,0.243,-0.336c0.102,-0.093,0.218,-0.168,0.347,-0.227c0.129,-0.058,0.262,-0.103,0.396,-0.134c-0.061,-0.026,-0.12,-0.063,-0.181,-0.109c-0.059,-0.047,-0.113,-0.1,-0.161,-0.159c-0.047,-0.063,-0.086,-0.129,-0.116,-0.203c-0.031,-0.072,-0.047,-0.15,-0.047,-0.23c0,-0.093,0.015,-0.178,0.04,-0.252c0.029,-0.076,0.068,-0.146,0.12,-0.212c0.052,-0.064,0.117,-0.126,0.196,-0.184c0.078,-0.06,0.166,-0.117,0.264,-0.18c-0.254,-0.11,-0.456,-0.287,-0.604,-0.53c-0.15,-0.244,-0.225,-0.529,-0.225,-0.859c0,-0.26,0.04,-0.494,0.121,-0.699c0.081,-0.207,0.2,-0.381,0.356,-0.523c0.155,-0.144,0.35,-0.252,0.582,-0.328c0.231,-0.076,0.499,-0.113,0.801,-0.113c0.057,0,0.122,0.004,0.194,0.012s0.145,0.018,0.216,0.025c0.07,0.01,0.137,0.021,0.196,0.033c0.061,0.01,0.109,0.021,0.146,0.029L626.654,654.422L626.654,654.422zM623.177,659.959c0,0.073,0.017,0.145,0.047,0.211c0.03,0.068,0.08,0.129,0.15,0.182c0.068,0.052,0.16,0.094,0.272,0.124c0.113,0.03,0.252,0.046,0.417,0.046c0.452,0,0.792,-0.063,1.021,-0.191c0.229,-0.127,0.343,-0.298,0.343,-0.514c0,-0.183,-0.07,-0.304,-0.213,-0.364c-0.143,-0.06,-0.361,-0.091,-0.66,-0.091l-0.613,0c-0.077,0,-0.162,0.009,-0.252,0.027c-0.09,0.018,-0.172,0.052,-0.248,0.099c-0.075,0.046,-0.139,0.108,-0.188,0.184S623.177,659.844,623.177,659.959zM623.656,656.004c0,0.263,0.049,0.468,0.147,0.612c0.098,0.146,0.248,0.217,0.447,0.217c0.209,0,0.358,-0.07,0.451,-0.217c0.094,-0.145,0.14,-0.35,0.14,-0.612c0,-0.261,-0.046,-0.468,-0.137,-0.622c-0.092,-0.152,-0.243,-0.229,-0.454,-0.229C623.853,655.152,623.656,655.435,623.656,656.004z"/>
   <path fill="#8C8C8C"  d="M627.404,658.651c0,-0.136,0.02,-0.251,0.059,-0.346c0.04,-0.095,0.094,-0.172,0.163,-0.229c0.069,-0.058,0.149,-0.101,0.244,-0.126c0.092,-0.026,0.191,-0.039,0.299,-0.039c0.102,0,0.198,0.013,0.289,0.039c0.092,0.025,0.172,0.068,0.242,0.126c0.068,0.057,0.123,0.134,0.163,0.229c0.041,0.095,0.062,0.21,0.062,0.346c0,0.13,-0.021,0.242,-0.062,0.335c-0.04,0.093,-0.095,0.17,-0.163,0.229c-0.07,0.062,-0.15,0.104,-0.242,0.133c-0.091,0.027,-0.188,0.042,-0.289,0.042c-0.106,0,-0.207,-0.015,-0.299,-0.042c-0.095,-0.027,-0.175,-0.071,-0.244,-0.133c-0.069,-0.061,-0.123,-0.138,-0.163,-0.229C627.422,658.893,627.404,658.781,627.404,658.651z"/>
   <path fill="#8C8C8C"  d="M634.363,656.833c0,0.406,-0.052,0.767,-0.153,1.079c-0.104,0.313,-0.251,0.576,-0.443,0.79c-0.192,0.215,-0.428,0.378,-0.704,0.489c-0.277,0.111,-0.587,0.167,-0.933,0.167c-0.321,0,-0.617,-0.056,-0.886,-0.167c-0.271,-0.112,-0.503,-0.274,-0.698,-0.489c-0.195,-0.214,-0.35,-0.479,-0.458,-0.79c-0.11,-0.313,-0.165,-0.673,-0.165,-1.079c0,-0.402,0.051,-0.76,0.154,-1.072c0.103,-0.314,0.25,-0.576,0.442,-0.789C630.711,654.758,630.945,654.597,631.22,654.488s0.587,-0.164,0.937,-0.164c0.319,0,0.615,0.055,0.886,0.164c0.27,0.111,0.502,0.271,0.695,0.484c0.197,0.213,0.351,0.477,0.459,0.789C634.307,656.073,634.363,656.431,634.363,656.833zM631.277,656.833c0,0.484,0.068,0.851,0.205,1.093c0.137,0.246,0.357,0.368,0.664,0.368c0.306,0,0.524,-0.123,0.66,-0.37c0.137,-0.245,0.205,-0.608,0.205,-1.091s-0.068,-0.846,-0.205,-1.084c-0.136,-0.238,-0.358,-0.357,-0.668,-0.357c-0.305,0,-0.523,0.119,-0.659,0.357C631.344,655.988,631.277,656.351,631.277,656.833z"/>
   <path fill="#8C8C8C"  d="M638.083,654.322c0.035,0,0.073,0.002,0.115,0.002c0.042,0.002,0.083,0.006,0.12,0.01c0.04,0.005,0.076,0.009,0.109,0.014c0.033,0.004,0.059,0.01,0.076,0.016l0,1.244c-0.023,-0.008,-0.055,-0.012,-0.095,-0.018c-0.041,-0.007,-0.083,-0.012,-0.13,-0.018c-0.045,-0.004,-0.089,-0.006,-0.132,-0.008c-0.045,-0.002,-0.08,-0.002,-0.108,-0.002c-0.171,0,-0.328,0.021,-0.473,0.064c-0.144,0.043,-0.267,0.113,-0.37,0.211c-0.102,0.098,-0.182,0.225,-0.237,0.383c-0.058,0.157,-0.084,0.352,-0.084,0.581l0,2.474l-1.326,0L635.548,654.413l1.004,0l0.195,0.73l0.065,0c0.068,-0.125,0.146,-0.238,0.226,-0.34c0.081,-0.103,0.172,-0.189,0.271,-0.259c0.101,-0.071,0.213,-0.126,0.339,-0.165C637.777,654.342,637.921,654.322,638.083,654.322z"/>
   <path fill="#8C8C8C"  d="M643.391,654.422l0,0.722l-0.708,0.221c0.058,0.1,0.099,0.201,0.121,0.308s0.034,0.22,0.034,0.343c0,0.246,-0.039,0.471,-0.116,0.676c-0.079,0.203,-0.194,0.379,-0.349,0.522c-0.153,0.146,-0.348,0.258,-0.578,0.337c-0.232,0.08,-0.501,0.119,-0.809,0.119c-0.067,0,-0.141,-0.003,-0.219,-0.012c-0.078,-0.007,-0.135,-0.015,-0.173,-0.021c-0.058,0.049,-0.104,0.101,-0.137,0.152c-0.034,0.054,-0.05,0.117,-0.05,0.193c0,0.061,0.019,0.108,0.057,0.146c0.037,0.037,0.086,0.065,0.146,0.087c0.062,0.021,0.133,0.036,0.215,0.044c0.08,0.008,0.164,0.012,0.251,0.012l0.756,0c0.234,0,0.445,0.025,0.63,0.081c0.186,0.055,0.343,0.135,0.472,0.246c0.129,0.109,0.229,0.249,0.298,0.419c0.07,0.169,0.104,0.372,0.104,0.605c0,0.275,-0.054,0.523,-0.165,0.745c-0.109,0.224,-0.275,0.41,-0.493,0.565c-0.219,0.154,-0.489,0.273,-0.815,0.355c-0.323,0.082,-0.698,0.123,-1.125,0.123c-0.329,0,-0.617,-0.031,-0.864,-0.094c-0.246,-0.063,-0.451,-0.15,-0.617,-0.27c-0.164,-0.116,-0.287,-0.258,-0.371,-0.424c-0.083,-0.164,-0.124,-0.353,-0.124,-0.561c0,-0.177,0.03,-0.33,0.091,-0.46c0.063,-0.131,0.144,-0.243,0.244,-0.336c0.103,-0.093,0.217,-0.168,0.346,-0.227c0.129,-0.058,0.263,-0.103,0.398,-0.134c-0.062,-0.026,-0.121,-0.063,-0.182,-0.109c-0.06,-0.047,-0.113,-0.1,-0.16,-0.159c-0.047,-0.063,-0.087,-0.129,-0.117,-0.203c-0.03,-0.073,-0.045,-0.151,-0.045,-0.231c0,-0.093,0.014,-0.178,0.04,-0.252c0.027,-0.076,0.067,-0.146,0.12,-0.212c0.051,-0.064,0.117,-0.126,0.194,-0.184c0.078,-0.06,0.166,-0.117,0.266,-0.18c-0.255,-0.109,-0.456,-0.287,-0.606,-0.529c-0.148,-0.244,-0.223,-0.531,-0.223,-0.861c0,-0.26,0.039,-0.493,0.121,-0.698c0.081,-0.207,0.199,-0.382,0.354,-0.524c0.156,-0.143,0.351,-0.252,0.583,-0.328c0.231,-0.074,0.499,-0.111,0.8,-0.111c0.059,0,0.123,0.003,0.195,0.011s0.146,0.017,0.215,0.026c0.072,0.009,0.138,0.021,0.198,0.031c0.062,0.012,0.108,0.021,0.145,0.03L643.391,654.421L643.391,654.422zM639.915,659.959c0,0.073,0.017,0.145,0.046,0.211c0.031,0.068,0.081,0.129,0.149,0.182c0.07,0.052,0.161,0.094,0.273,0.124c0.114,0.03,0.252,0.046,0.418,0.046c0.451,0,0.792,-0.063,1.021,-0.191c0.229,-0.127,0.343,-0.298,0.343,-0.514c0,-0.183,-0.071,-0.304,-0.214,-0.364s-0.361,-0.091,-0.66,-0.091l-0.612,0c-0.079,0,-0.163,0.009,-0.252,0.027c-0.09,0.019,-0.173,0.052,-0.248,0.099c-0.076,0.046,-0.139,0.108,-0.188,0.184C639.941,659.746,639.915,659.844,639.915,659.959zM640.392,656.004c0,0.263,0.049,0.468,0.148,0.612c0.099,0.146,0.248,0.217,0.447,0.217c0.209,0,0.358,-0.07,0.451,-0.217c0.094,-0.145,0.141,-0.35,0.141,-0.612c0,-0.261,-0.046,-0.468,-0.138,-0.622c-0.092,-0.152,-0.243,-0.229,-0.454,-0.229C640.59,655.152,640.392,655.435,640.392,656.004z"/>
  </g>
  <g >
   <path fill="#8C8C8C"  d="M588.985,651.542l-8.146,0c-0.532,0,-0.965,0.432,-0.965,0.964l0,8.146c0,0.531,0.433,0.964,0.965,0.964l5.55,0l3.557,-3.558L589.946,652.506C589.949,651.973,589.517,651.542,588.985,651.542zM587.308,655.271l-1.075,0l0,0.401l1.075,0l0,1.601l-2.196,0l0,2.058l-2.572,0l0,-4.67l0.988,-0.99l3.779,0l0,1.603l0.001,0L587.308,655.271z"/>
  </g>
 </g>
 <g partID="72680">
  <g transform="translate(385.495,193.955)">
   <g  id="schematic">
    <rect width="131.76" x="22.68" y="1.08" fill="none"  height="148.68" stroke="#000000" stroke-linejoin="round" stroke-linecap="round" id="0.1.0" stroke-width="2.16"/>
    <text x="112.7" y="79.02" fill="#000000" font-family="DroidSans"  text-anchor="middle" stroke="none" id="label" font-size="18.36">Sensor</text>
    <circle fill="#000000" cx="140.76"  cy="14.4" r="10.8" id="0.1.2" stroke-width="0"/>
    <text x="140.76" y="21.96" fill="#FFFFFF" font-family="DroidSans"  text-anchor="middle" font-weight="bold" id="0.1.3" stroke-width="0" font-size="19.8">?</text>
    <line fill="none"  stroke="#000000" stroke-linejoin="round" stroke-linecap="round" id="0.1.4" y1="22.32" stroke-width="2.16" x1="1.08" y2="22.32" x2="21.6"/>
    <rect width="21.6" x="0" y="21.24" fill="none"  height="2.16" id="connector0pin" stroke-width="0"/>
    <rect width="2.16" x="0" y="21.24" fill="none"  height="2.16" id="connector0terminal" stroke-width="0"/>
    <text x="28.08" y="24.84" font-family="DroidSans" fill="#000000"  text-anchor="start" stroke="none" id="label0" font-size="9.36">V-LED</text>
    <line fill="none"  stroke="#000000" stroke-linejoin="round" stroke-linecap="round" id="0.1.8" y1="43.56" stroke-width="2.16" x1="1.08" y2="43.56" x2="21.6"/>
    <rect width="21.6" x="0" y="42.48" fill="none"  height="2.16" id="connector1pin" stroke-width="0"/>
    <rect width="2.16" x="0" y="42.48" fill="none"  height="2.16" id="connector1terminal" stroke-width="0"/>
    <text x="28.08" y="46.08" font-family="DroidSans" fill="#000000"  text-anchor="start" stroke="none" id="label1" font-size="9.36">LED-GND</text>
    <line fill="none"  stroke="#000000" stroke-linejoin="round" stroke-linecap="round" id="0.1.12" y1="64.8" stroke-width="2.16" x1="1.08" y2="64.8" x2="21.6"/>
    <rect width="21.6" x="0" y="63.72" fill="none"  height="2.16" id="connector2pin" stroke-width="0"/>
    <rect width="2.16" x="0" y="63.72" fill="none"  height="2.16" id="connector2terminal" stroke-width="0"/>
    <text x="28.08" y="67.32" font-family="DroidSans" fill="#000000"  text-anchor="start" stroke="none" id="label2" font-size="9.36">LED</text>
    <line fill="none"  stroke="#000000" stroke-linejoin="round" stroke-linecap="round" id="0.1.16" y1="86.04" stroke-width="2.16" x1="1.08" y2="86.04" x2="21.6"/>
    <rect width="21.6" x="0" y="84.96" fill="none"  height="2.16" id="connector3pin" stroke-width="0"/>
    <rect width="2.16" x="0" y="84.96" fill="none"  height="2.16" id="connector3terminal" stroke-width="0"/>
    <text x="28.08" y="88.56" font-family="DroidSans" fill="#000000"  text-anchor="start" stroke="none" id="label3" font-size="9.36">S-GND</text>
    <line fill="none"  stroke="#000000" stroke-linejoin="round" stroke-linecap="round" id="0.1.20" y1="107.28" stroke-width="2.16" x1="1.08" y2="107.28" x2="21.6"/>
    <rect width="21.6" x="0" y="106.2" fill="none"  height="2.16" id="connector4pin" stroke-width="0"/>
    <rect width="2.16" x="0" y="106.2" fill="none"  height="2.16" id="connector4terminal" stroke-width="0"/>
    <text x="28.08" y="109.8" font-family="DroidSans" fill="#000000"  text-anchor="start" stroke="none" id="label4" font-size="9.36">Vo</text>
    <line fill="none"  stroke="#000000" stroke-linejoin="round" stroke-linecap="round" id="0.1.24" y1="128.52" stroke-width="2.16" x1="1.08" y2="128.52" x2="21.6"/>
    <rect width="21.6" x="0" y="127.44" fill="none"  height="2.16" id="connector5pin" stroke-width="0"/>
    <rect width="2.16" x="0" y="127.44" fill="none"  height="2.16" id="connector5terminal" stroke-width="0"/>
    <text x="28.08" y="131.04" font-family="DroidSans" fill="#000000"  text-anchor="start" stroke="none" id="label5" font-size="9.36">Vcc</text>
   </g>
  </g>
 </g>
 <g partID="72950">
  <g transform="translate(45.2562,173.758)">
   <g  id="schematic">
    <rect width="10.488" x="1.298" y="85.491" fill="none"  height="2.102" id="connector12pin"/>
    <rect width="10.488" x="203.165" y="64.042" fill="none"  height="2.102" id="connector27pin"/>
    <rect width="10.488" x="203.171" y="85.279" fill="none"  height="2.1" id="connector26pin"/>
    <rect width="10.488" x="203.171" y="106.516" fill="none"  height="2.1" id="connector25pin"/>
    <rect width="10.488" x="203.171" y="127.753" fill="none"  height="2.101" id="connector24pin"/>
    <rect width="10.488" x="203.171" y="148.989" fill="none"  height="2.1" id="connector23pin"/>
    <rect width="10.488" x="203.171" y="170.226" fill="none"  height="2.099" id="connector22pin"/>
    <rect width="10.488" x="203.171" y="191.461" fill="none"  height="2.102" id="connector21pin"/>
    <rect width="10.488" x="203.171" y="212.698" fill="none"  height="2.102" id="connector20pin"/>
    <rect width="10.488" x="203.171" y="233.935" fill="none"  height="2.1" id="connector19pin"/>
    <rect width="10.488" x="203.171" y="255.17" fill="none"  height="2.101" id="connector18pin"/>
    <rect width="10.488" x="203.171" y="276.407" fill="none"  height="2.102" id="connector17pin"/>
    <rect width="10.488" x="203.171" y="297.644" fill="none"  height="2.098" id="connector16pin"/>
    <rect width="10.488" x="203.171" y="318.877" fill="none"  height="2.103" id="connector9pin"/>
    <rect width="10.488" x="203.171" y="340.114" fill="none"  height="2.102" id="connector10pin"/>
    <rect width="10.488" x="1.29" y="64.254" fill="none"  height="2.102" id="connector8pin"/>
    <rect width="2.1" x="105.229" y="1.461" fill="none"  height="10.487" id="connector14pin"/>
    <rect width="2.097" x="106.406" y="394.384" fill="none"  height="10.486" id="connector13pin"/>
    <rect width="2.098" x="106.411" y="394.384" fill="none"  height="10.486" id="connector15pin"/>
    <rect width="10.488" x="1.259" y="191.622" fill="none"  height="2.102" id="connector7pin"/>
    <rect width="10.488" x="1.259" y="212.86" fill="none"  height="2.101" id="connector6pin"/>
    <rect width="10.488" x="1.259" y="234.096" fill="none"  height="2.099" id="connector5pin"/>
    <rect width="10.488" x="1.259" y="255.331" fill="none"  height="2.101" id="connector4pin"/>
    <rect width="10.488" x="1.259" y="276.571" fill="none"  height="2.099" id="connector3pin"/>
    <rect width="10.488" x="1.259" y="297.806" fill="none"  height="2.099" id="connector2pin"/>
    <rect width="1.995" x="1.298" y="85.491" fill="none"  height="2.102" id="connector12terminal"/>
    <rect width="1.995" x="211.659" y="64.042" fill="none"  height="2.102" id="connector27terminal"/>
    <rect width="1.994" x="211.667" y="85.279" fill="none"  height="2.1" id="connector26terminal"/>
    <rect width="1.994" x="211.667" y="106.516" fill="none"  height="2.1" id="connector25terminal"/>
    <rect width="1.994" x="211.667" y="127.753" fill="none"  height="2.101" id="connector24terminal"/>
    <rect width="1.994" x="211.667" y="148.989" fill="none"  height="2.1" id="connector23terminal"/>
    <rect width="1.994" x="211.667" y="170.226" fill="none"  height="2.099" id="connector22terminal"/>
    <rect width="1.994" x="211.667" y="191.461" fill="none"  height="2.102" id="connector21terminal"/>
    <rect width="1.994" x="211.667" y="212.698" fill="none"  height="2.102" id="connector20terminal"/>
    <rect width="1.994" x="211.667" y="233.935" fill="none"  height="2.1" id="connector19terminal"/>
    <rect width="1.994" x="211.667" y="255.17" fill="none"  height="2.101" id="connector18terminal"/>
    <rect width="1.994" x="211.667" y="276.407" fill="none"  height="2.102" id="connector17terminal"/>
    <rect width="1.994" x="211.667" y="297.644" fill="none"  height="2.098" id="connector16terminal"/>
    <rect width="1.994" x="211.667" y="318.877" fill="none"  height="2.103" id="connector9terminal"/>
    <rect width="1.994" x="211.667" y="340.114" fill="none"  height="2.102" id="connector10terminal"/>
    <rect width="1.995" x="1.29" y="64.254" fill="none"  height="2.102" id="connector8terminal"/>
    <rect width="2.1" x="105.229" y="1.461" fill="none"  height="1.994" id="connector14terminal"/>
    <rect width="2.097" x="106.406" y="402.879" fill="none"  height="1.991" id="connector13terminal"/>
    <rect width="2.098" x="106.411" y="402.879" fill="none"  height="1.991" id="connector15terminal"/>
    <rect width="1.995" x="1.259" y="191.622" fill="none"  height="2.102" id="connector7terminal"/>
    <rect width="1.995" x="1.259" y="212.86" fill="none"  height="2.101" id="connector6terminal"/>
    <rect width="1.995" x="1.259" y="234.096" fill="none"  height="2.099" id="connector5terminal"/>
    <rect width="1.995" x="1.259" y="255.331" fill="none"  height="2.101" id="connector4terminal"/>
    <rect width="1.995" x="1.259" y="276.571" fill="none"  height="2.099" id="connector3terminal"/>
    <rect width="1.995" x="1.259" y="297.806" fill="none"  height="2.099" id="connector2terminal"/>
    <rect width="2.101" x="105.229" y="0.487" fill="none"  height="10.488" id="connector11pin"/>
    <rect width="2.101" x="105.229" y="0.487" fill="none"  height="1.995" id="connector11terminal"/>
    <rect width="10.488" x="1.259" y="318.571" fill="none"  height="2.099" id="connector1pin"/>
    <rect width="10.488" x="1.259" y="339.806" fill="none"  height="2.099" id="connector0pin"/>
    <rect width="1.995" x="1.259" y="318.571" fill="none"  height="2.099" id="connector1terminal"/>
    <rect width="1.995" x="1.259" y="339.806" fill="none"  height="2.099" id="connector0terminal"/>
    <g >
     <rect width="169.971" x="22.446" y="22.698" fill="none"  height="360.938" stroke="#000000" stroke-linejoin="round" stroke-linecap="round" stroke-width="2.415"/>
     <line fill="none"  stroke="#000000" stroke-linejoin="round" stroke-linecap="round" y1="65.137" stroke-width="2.2495" x1="1.292" y2="65.137" x2="22.527"/>
     <line fill="none"  stroke="#000000" stroke-linejoin="round" stroke-linecap="round" y1="86.372" stroke-width="2.415" x1="1.298" y2="86.372" x2="22.446"/>
     <line fill="none"  stroke="#000000" stroke-linejoin="round" stroke-linecap="round" y1="192.504" stroke-width="2.415" x1="1.259" y2="192.504" x2="22.446"/>
     <line fill="none"  stroke="#000000" stroke-linejoin="round" stroke-linecap="round" y1="213.741" stroke-width="2.415" x1="1.259" y2="213.741" x2="22.446"/>
     <line fill="none"  stroke="#000000" stroke-linejoin="round" stroke-linecap="round" y1="234.977" stroke-width="2.415" x1="1.259" y2="234.977" x2="22.446"/>
     <line fill="none"  stroke="#000000" stroke-linejoin="round" stroke-linecap="round" y1="256.211" stroke-width="2.415" x1="1.259" y2="256.211" x2="22.446"/>
     <line fill="none"  stroke="#000000" stroke-linejoin="round" stroke-linecap="round" y1="277.45" stroke-width="2.415" x1="1.259" y2="277.45" x2="22.446"/>
     <line fill="none"  stroke="#000000" stroke-linejoin="round" stroke-linecap="round" y1="298.687" stroke-width="2.415" x1="1.259" y2="298.687" x2="22.446"/>
     <line fill="none"  stroke="#000000" stroke-linejoin="round" stroke-linecap="round" y1="65.261" stroke-width="1.9517" x1="213.653" y2="65.261" x2="192.419"/>
     <line fill="none"  stroke="#000000" stroke-linejoin="round" stroke-linecap="round" y1="86.497" stroke-width="2.415" x1="213.661" y2="86.497" x2="192.419"/>
     <line fill="none"  stroke="#000000" stroke-linejoin="round" stroke-linecap="round" y1="107.734" stroke-width="2.415" x1="213.661" y2="107.734" x2="192.419"/>
     <line fill="none"  stroke="#000000" stroke-linejoin="round" stroke-linecap="round" y1="128.97" stroke-width="2.415" x1="213.661" y2="128.97" x2="192.419"/>
     <line fill="none"  stroke="#000000" stroke-linejoin="round" stroke-linecap="round" y1="150.206" stroke-width="2.415" x1="213.661" y2="150.206" x2="192.419"/>
     <line fill="none"  stroke="#000000" stroke-linejoin="round" stroke-linecap="round" y1="171.443" stroke-width="2.415" x1="213.661" y2="171.443" x2="192.419"/>
     <line fill="none"  stroke="#000000" stroke-linejoin="round" stroke-linecap="round" y1="192.679" stroke-width="2.415" x1="213.661" y2="192.679" x2="192.419"/>
     <line fill="none"  stroke="#000000" stroke-linejoin="round" stroke-linecap="round" y1="213.914" stroke-width="2.415" x1="213.661" y2="213.914" x2="192.419"/>
     <line fill="none"  stroke="#000000" stroke-linejoin="round" stroke-linecap="round" y1="235.152" stroke-width="2.415" x1="213.661" y2="235.152" x2="192.419"/>
     <line fill="none"  stroke="#000000" stroke-linejoin="round" stroke-linecap="round" y1="256.388" stroke-width="2.415" x1="213.661" y2="256.388" x2="192.419"/>
     <line fill="none"  stroke="#000000" stroke-linejoin="round" stroke-linecap="round" y1="277.622" stroke-width="2.415" x1="213.661" y2="277.622" x2="192.419"/>
     <line fill="none"  stroke="#000000" stroke-linejoin="round" stroke-linecap="round" y1="298.862" stroke-width="2.415" x1="213.661" y2="298.862" x2="192.419"/>
     <line fill="none"  stroke="#000000" stroke-linejoin="round" stroke-linecap="round" y1="320.097" stroke-width="2.415" x1="213.661" y2="320.097" x2="192.419"/>
     <line fill="none"  stroke="#000000" stroke-linejoin="round" stroke-linecap="round" y1="341.332" stroke-width="2.415" x1="213.661" y2="341.332" x2="192.419"/>
     <text font-family="'DroidSans'"  transform="matrix(1, 0, 0, 1, 30.4199, 67.8542)" font-size="9.9889">D</text>
     <text font-family="'DroidSans'"  transform="matrix(1, 0, 0, 1, 36.9551, 67.8542)" font-size="9.9889">T</text>
     <text font-family="'DroidSans'"  transform="matrix(1, 0, 0, 1, 42.1396, 67.8542)" font-size="9.9889">R</text>
     <text font-family="'DroidSans'"  transform="matrix(1, 0, 0, 1, 30.4219, 88.9226)" font-size="9.9889">AREF</text>
     <text font-family="'DroidSans'"  transform="matrix(1, 0, 0, 1, 32.2925, 194.997)" font-size="9.9889">A0</text>
     <text font-family="'DroidSans'"  transform="matrix(1, 0, 0, 1, 32.2925, 216.432)" font-size="9.9889">A1</text>
     <text font-family="'DroidSans'"  transform="matrix(1, 0, 0, 1, 32.2925, 237.872)" font-size="9.9889">A2</text>
     <text font-family="'DroidSans'"  transform="matrix(1, 0, 0, 1, 32.2925, 259.309)" font-size="9.9889">A3</text>
     <text font-family="'DroidSans'"  transform="matrix(1, 0, 0, 1, 32.2925, 280.747)" font-size="9.9889">A4</text>
     <text font-family="'DroidSans'"  transform="matrix(1, 0, 0, 1, 32.2925, 302.185)" font-size="9.9889">A5</text>
     <line fill="none"  stroke="#000000" stroke-linejoin="round" stroke-linecap="round" y1="319.45" stroke-width="2.415" x1="1.259" y2="319.45" x2="22.446"/>
     <line fill="none"  stroke="#000000" stroke-linejoin="round" stroke-linecap="round" y1="340.687" stroke-width="2.415" x1="1.259" y2="340.687" x2="22.446"/>
     <text font-family="'DroidSans'"  transform="matrix(1, 0, 0, 1, 32.2925, 322.747)" font-size="9.9889">A6</text>
     <text font-family="'DroidSans'"  transform="matrix(1, 0, 0, 1, 32.2925, 344.185)" font-size="9.9889">A7</text>
     <line fill="none"  stroke="#000000" stroke-linejoin="round" stroke-linecap="round" y1="22.698" stroke-width="1.9517" x1="106.233" y2="1.461" x2="106.233"/>
     <text font-family="'DroidSans'"  transform="matrix(1, 0, 0, 1, 97.8911, 39.8582)" font-size="9.9889">3V3</text>
     <text font-family="'DroidSans'"  transform="matrix(0, 1, -1, 0, 57.3369, 238.764)" font-size="9.9889">Analog Input</text>
     <text font-family="'DroidSans'"  transform="matrix(1, 0, 0, 1, 162.714, 110.171)" font-size="9.9889">D11</text>
     <text font-family="'DroidSans'"  transform="matrix(1, 0, 0, 1, 162.714, 131.78)" font-size="9.9889">D10</text>
     <text font-family="'DroidSans'"  transform="matrix(1, 0, 0, 1, 168.215, 152.962)" font-size="9.9889">D9</text>
     <text font-family="'DroidSans'"  transform="matrix(1, 0, 0, 1, 168.215, 173.72)" font-size="9.9889">D8</text>
     <text font-family="'DroidSans'"  transform="matrix(1, 0, 0, 1, 168.215, 195.329)" font-size="9.9889">D7</text>
     <text font-family="'DroidSans'"  transform="matrix(1, 0, 0, 1, 168.215, 216.087)" font-size="9.9889">D6</text>
     <text font-family="'DroidSans'"  transform="matrix(1, 0, 0, 1, 168.215, 237.693)" font-size="9.9889">D5</text>
     <text font-family="'DroidSans'"  transform="matrix(1, 0, 0, 1, 168.215, 258.876)" font-size="9.9889">D4</text>
     <text font-family="'DroidSans'"  transform="matrix(1, 0, 0, 1, 168.215, 280.483)" font-size="9.9889">D3</text>
     <text font-family="'DroidSans'"  transform="matrix(1, 0, 0, 1, 195.706, 274.425)" font-size="6.9922">PWM</text>
     <text font-family="'DroidSans'"  transform="matrix(1, 0, 0, 1, 196.698, 316.585)" font-size="6.9922">TX</text>
     <text font-family="'DroidSans'"  transform="matrix(1, 0, 0, 1, 196.698, 336.981)" font-size="6.9922">RX</text>
     <text font-family="'DroidSans'"  transform="matrix(1, 0, 0, 1, 195.706, 147.288)" font-size="6.9922">PWM</text>
     <text font-family="'DroidSans'"  transform="matrix(1, 0, 0, 1, 195.706, 125.95)" font-size="6.9922">PWM</text>
     <text font-family="'DroidSans'"  transform="matrix(1, 0, 0, 1, 195.706, 231.913)" font-size="6.9922">PWM</text>
     <text font-family="'DroidSans'"  transform="matrix(1, 0, 0, 1, 195.706, 210.575)" font-size="6.9922">PWM</text>
     <text font-family="'DroidSans'"  transform="matrix(1, 0, 0, 1, 195.706, 104.823)" font-size="6.9922">PWM</text>
     <text font-family="'DroidSans'"  transform="matrix(1, 0, 0, 1, 168.215, 301.241)" font-size="9.9889">D2</text>
     <text font-family="'DroidSans'"  transform="matrix(1, 0, 0, 1, 168.215, 322.848)" font-size="9.9889">T</text>
     <text font-family="'DroidSans'"  transform="matrix(1, 0, 0, 1, 173.401, 322.848)" font-size="9.9889">X</text>
     <text font-family="'DroidSans'"  transform="matrix(1, 0, 0, 1, 178.663, 322.848)" font-size="9.9889">O</text>
     <text font-family="'DroidSans'"  transform="matrix(1, 0, 0, 1, 162.714, 67.8054)" font-size="9.9889">D13</text>
     <text font-family="'DroidSans'"  transform="matrix(1, 0, 0, 1, 162.714, 88.9871)" font-size="9.9889">D12</text>
     <text font-family="'DroidSans'"  transform="matrix(1, 0, 0, 1, 168.215, 344.031)" font-size="9.9889">RXI</text>
     <text font-family="'DroidSans'"  transform="matrix(0, -1, 1, 0, 156.935, 242.921)" font-size="9.9889">Digital Input/Output</text>
     <text font-family="'DroidSans'"  transform="matrix(1, 0, 0, 1, 93.2803, 54.405)" font-size="9.9889">Power</text>
     <text font-family="'DroidSans'"  transform="matrix(1, 0, 0, 1, 72.6763, 112.608)" font-size="17.98">Arduino </text>
     <text font-family="'DroidSans'"  transform="matrix(1, 0, 0, 1, 95.1763, 132.108)" font-size="17.98">Fio</text>
     <line fill="none"  stroke="#000000" stroke-linejoin="round" stroke-linecap="round" y1="404.872" stroke-width="1.9517" x1="107.458" y2="383.634" x2="107.458"/>
     <text font-family="'DroidSans'"  transform="matrix(1, 0, 0, 1, 96.9268, 373.447)" font-size="9.9889">GND</text>
     <polygon points="206.345,311.687,211.05,314.404,206.345,317.12" />
     <polygon points="211.05,337.732,206.345,335.011,211.05,332.295" />
    </g>
   </g>
  </g>
 </g>
 <g partID="75960">
  <g transform="translate(306.128,109.004)">
   <g  id="schematic">
    <g >
     <rect width="1.375" x="15.989" y="30.102"  height="13.589" id="connector0pin"/>
     <rect width="1.375" x="15.989" y="0.398"  height="13.578" id="connector1pin"/>
     <rect width="0.75" x="16.292" y="0"  height="0.799" id="connector1terminal"/>
     <rect width="0.75" x="16.292" y="43.032"  height="0.8" id="connector0terminal"/>
    </g>
    <line fill="none"  stroke="#000000" stroke-linecap="round" y1="0.852" stroke-width="2.4" x1="16.616" y2="18.477" x2="16.616"/>
    <line fill="none"  stroke="#000000" stroke-linecap="round" y1="18.852" stroke-width="2.4" x1="1.366" y2="18.852" x2="31.366"/>
    <line fill="none"  stroke="#000000" stroke-linecap="round" y1="24.616" stroke-width="2.4" x1="16.616" y2="43.227" x2="16.616"/>
    <line fill="none"  stroke="#000000" y1="11.928" stroke-width="1" x1="24.688" y2="11.928" x2="31.313"/>
    <line fill="none"  stroke="#000000" y1="8.616" stroke-width="1" x1="28" y2="15.241" x2="28"/>
    <path fill="none"  stroke="#000000" stroke-linecap="round" stroke-width="2.4" d="M1.732,29.247c4.079,-3.221,9.23,-5.143,14.83,-5.143c5.495,0,10.559,1.851,14.6,4.963"/>
   </g>
  </g>
 </g>
 <g partID="75990">
  <g transform="translate(194.487,52.5222)">
   <g transform="matrix(0,-1,1,0,0,0)">
    <g  id="schematic">
     <rect width="1.893" x="5.474" y="1.089"  height="9.783" id="connector0pin"/>
     <rect width="0.866" x="5.952" y="0.406"  height="0.686" id="connector0terminal"/>
     <rect width="1.894" x="5.477" y="54.369"  height="9.783" id="connector1pin"/>
     <rect width="0.866" x="5.956" y="64.082"  height="0.688" id="connector1terminal"/>
     <g >
      <polyline fill="#FFFFFF" points="6.405,1.132,6.405,20.392,9.905,22.255,2.655,26.291,9.905,30.324,2.655,34.359,9.905,38.392,2.655,42.427,6.405,44.599,6.405,63.861"  stroke="#000000" stroke-linecap="round" stroke-width="2.2284"/>
     </g>
    </g>
   </g>
  </g>
 </g>
 <g partID="74550">
  <line stroke="#404040" stroke-linecap="round" y1="46.3954" x1="322.537" y2="109.404" stroke-width="2.4" x2="322.795"/>
 </g>
 <g partID="76020">
  <line stroke="#404040" stroke-linecap="round" y1="46.1372" x1="195.236" y2="46.3954" stroke-width="2.4" x2="152.937"/>
 </g>
 <g partID="76310">
  <line stroke="#404040" stroke-linecap="round" y1="46.3954" x1="152.937" y2="110.395" stroke-width="2.4" x2="151.87"/>
 </g>
 <g partID="76090">
  <line stroke="#404040" stroke-linecap="round" y1="46.3954" x1="322.537" y2="46.1332" stroke-width="2.4" x2="258.913"/>
 </g>
 <circle fill="black" cx="322.537" cy="46.3954" stroke="none" r="3.6" stroke-width="0"/>
 <g partID="76380">
  <line stroke="#404040" stroke-linecap="round" y1="46.3954" x1="386.575" y2="216.275" stroke-width="2.4" x2="386.575"/>
 </g>
 <g partID="73240">
  <line stroke="#404040" stroke-linecap="round" y1="152.436" x1="322.795" y2="237.329" stroke-width="2.4" x2="322.537"/>
 </g>
 <g partID="73310">
  <line stroke="#404040" stroke-linecap="round" y1="620.262" x1="152.937" y2="598.929" stroke-width="2.4" x2="152.937"/>
 </g>
 <g partID="73380">
  <line stroke="#404040" stroke-linecap="round" y1="620.262" x1="322.537" y2="620.262" stroke-width="2.4" x2="152.937"/>
 </g>
 <g partID="76120">
  <line stroke="#404040" stroke-linecap="round" y1="46.3954" x1="322.537" y2="46.3954" stroke-width="2.4" x2="386.575"/>
 </g>
 <g partID="76940">
  <line stroke="#404040" stroke-linecap="round" y1="598.929" x1="152.937" y2="577.633" stroke-width="2.4" x2="152.711"/>
 </g>
 <g partID="78490">
  <line stroke="#404040" stroke-linecap="round" y1="281.062" x1="323.603" y2="620.262" stroke-width="2.4" x2="322.537"/>
 </g>
 <circle fill="black" cx="323.603" cy="281.062" stroke="none" r="3.6" stroke-width="0"/>
 <g partID="77530">
  <line stroke="#404040" stroke-linecap="round" y1="237.329" x1="322.537" y2="281.062" stroke-width="2.4" x2="323.603"/>
 </g>
 <circle fill="black" cx="322.537" cy="237.329" stroke="none" r="3.6" stroke-width="0"/>
 <g partID="77670">
  <line stroke="#404040" stroke-linecap="round" y1="260.088" x1="257.92" y2="258.755" stroke-width="2.4" x2="386.575"/>
 </g>
 <g partID="78380">
  <line stroke="#404040" stroke-linecap="round" y1="237.329" x1="322.537" y2="237.515" stroke-width="2.4" x2="386.575"/>
 </g>
 <g partID="78590">
  <line stroke="#404040" stroke-linecap="round" y1="281.062" x1="323.603" y2="279.995" stroke-width="2.4" x2="386.575"/>
 </g>
 <g partID="79090">
  <line stroke="#404040" stroke-linecap="round" y1="641.595" x1="343.87" y2="641.595" stroke-width="2.4" x2="343.87"/>
 </g>
 <g partID="79020">
  <line stroke="#404040" stroke-linecap="round" y1="301.329" x1="343.87" y2="301.235" stroke-width="2.4" x2="386.575"/>
 </g>
 <g partID="80450">
  <line stroke="#404040" stroke-linecap="round" y1="641.595" x1="343.87" y2="301.329" stroke-width="2.4" x2="343.87"/>
 </g>
 <g partID="78740">
  <line stroke="#404040" stroke-linecap="round" y1="493.379" x1="47.5127" y2="492.694" stroke-width="2.4" x2="3.85735"/>
 </g>
 <g partID="78950">
  <line stroke="#404040" stroke-linecap="round" y1="641.595" x1="3.60338" y2="641.595" stroke-width="2.4" x2="343.87"/>
 </g>
 <g partID="78880">
  <line stroke="#404040" stroke-linecap="round" y1="492.694" x1="3.85735" y2="641.595" stroke-width="2.4" x2="3.60338"/>
 </g>
 <g partID="79160">
  <line stroke="#404040" stroke-linecap="round" y1="110.395" x1="151.87" y2="176.216" stroke-width="2.4" x2="151.535"/>
 </g>
 <circle fill="black" cx="151.87" cy="110.395" stroke="none" r="3.6" stroke-width="0"/>
 <g partID="79550">
  <line stroke="#404040" stroke-linecap="round" y1="3.60132" x1="641.725" y2="386.662" stroke-width="2.4" x2="641.47"/>
 </g>
 <g partID="79660">
  <line stroke="#404040" stroke-linecap="round" y1="3.72878" x1="110.27" y2="3.60132" stroke-width="2.4" x2="641.725"/>
 </g>
 <g partID="79440">
  <line stroke="#404040" stroke-linecap="round" y1="386.662" x1="641.47" y2="386.372" stroke-width="2.4" x2="386.618"/>
 </g>
 <g partID="79330">
  <line stroke="#404040" stroke-linecap="round" y1="386.372" x1="386.618" y2="322.475" stroke-width="2.4" x2="386.575"/>
 </g>
 <g partID="79220">
  <line stroke="#404040" stroke-linecap="round" y1="110.395" x1="151.87" y2="110.395" stroke-width="2.4" x2="110.27"/>
 </g>
 <g partID="79770">
  <line stroke="#404040" stroke-linecap="round" y1="110.395" x1="110.27" y2="3.72878" stroke-width="2.4" x2="110.27"/>
 </g>
 <g id="partLabel" partID="72950">
  <g transform="translate(260.176,162.558)">
   <g fill="#000000" font-family="'DroidSans'" stroke="none" font-style="normal" fill-opacity="1" font-weight="normal" id="schematicLabel" font-size="9">
    <text x="0" y="6.75">Arduino1</text>
   </g>
  </g>
 </g>
 <g id="partLabel" partID="72680">
  <g transform="translate(540.655,173.955)">
   <g fill="#000000" font-family="'DroidSans'" stroke="none" font-style="normal" fill-opacity="1" font-weight="normal" id="schematicLabel" font-size="9">
    <text x="0" y="6.75">U1</text>
    <text x="0" y="15.75">GP2Y1010AU0F</text>
   </g>
  </g>
 </g>
 <g id="partLabel" partID="75960">
  <g transform="translate(338.878,97.8044)">
   <g fill="#000000" font-family="'DroidSans'" stroke="none" font-style="normal" fill-opacity="1" font-weight="normal" id="schematicLabel" font-size="9">
    <text x="0" y="6.75">220 uF</text>
   </g>
  </g>
 </g>
 <g id="partLabel" partID="75990">
  <g transform="translate(255.754,22.7219)">
   <g fill="#000000" font-family="'DroidSans'" stroke="none" font-style="normal" fill-opacity="1" font-weight="normal" id="schematicLabel" font-size="9">
    <text x="0" y="6.75">150 &#x3a9;</text>
   </g>
  </g>
 </g>
</svg>
