<?xml version='1.0' encoding='UTF-8' standalone='no'?>
<!-- Created with Fritzing (http://www.fritzing.org/) -->
<svg xmlns="http://www.w3.org/2000/svg" width="3.36026in" x="0in" version="1.2" y="0in"  height="2.75376in" viewBox="0 0 241.938 198.271" baseProfile="tiny" xmlns:svg="http://www.w3.org/2000/svg">
 <g transform="matrix(-1, 0, 0, 1, 241.938, 0)">
  <g partID="19670">
   <g  id="board">
    <rect width="241.363" x="0.288" y="0.288" fill="none"  height="197.695" stroke="black" fill-opacity="0.5" id="boardoutline" stroke-width="0.5"/>
   </g>
  </g>
  <g partID="1712161">
   <g transform="translate(14.288,41.359)">
    <g  id="copper1">
     <g  id="copper0">
      <rect width="5.184" x="0.72" y="0.72" fill="black"  height="5.184" stroke="black" id="rect20" stroke-width="2.16"/>
      <circle fill="black" cx="3.312"  cy="3.312" stroke="black" id="connector0pin" r="2.592" stroke-width="2.16"/>
      <circle fill="black" cx="24.912"  cy="3.312" stroke="black" id="connector1pin" r="2.592" stroke-width="2.16"/>
     </g>
    </g>
   </g>
  </g>
  <g partID="1713461">
   <g transform="translate(156.848,68.719)">
    <g  id="copper1">
     <circle fill="black" cx="4.752"  cy="4.752" stroke="black" r="1.98" id="connector0pad" stroke-width="2.16"/>
     <circle fill="black" cx="19.152"  cy="26.352" stroke="black" r="1.98" id="connector1pad" stroke-width="2.16"/>
    </g>
   </g>
  </g>
  <g partID="1773461">
   <g transform="translate(135.248,119.119)">
    <g  id="copper1">
     <circle fill="black" cx="4.752"  cy="26.352" stroke="black" r="1.98" id="connector0pad" stroke-width="2.16"/>
     <circle fill="black" cx="4.752"  cy="4.752" stroke="black" r="1.98" id="connector1pad" stroke-width="2.16"/>
    </g>
   </g>
  </g>
  <g partID="1776561">
   <g transform="translate(171.919,138.203)">
    <g  id="copper1">
     <circle fill="black" cx="4.71811"  cy="4.71811" stroke="black" r="3.11811" id="nonconn0" stroke-width="0.72"/>
    </g>
   </g>
  </g>
  <g partID="1776591">
   <g transform="translate(171.919,179.303)">
    <g  id="copper1">
     <circle fill="black" cx="4.71811"  cy="4.71811" stroke="black" r="3.11811" id="nonconn0" stroke-width="0.72"/>
    </g>
   </g>
  </g>
  <g partID="1517551">
   <g transform="translate(41.36,56.911)">
    <g transform="matrix(0,-1,1,0,0,0)">
     <g gorn="0.1"  id="copper1">
      <g gorn="0.1.0"  id="copper0">
       <rect width="4.176" x="2.952" y="2.952" fill="black" gorn="0.1.0.0"  height="4.176" stroke="black" id="square" stroke-width="2.16"/>
       <circle fill="black" cx="5.04" gorn="0.1.0.1"  cy="5.04" stroke="black" id="connector0pin" r="2.088" stroke-width="2.16"/>
       <circle fill="black" cx="5.04" gorn="0.1.0.2"  cy="12.24" stroke="black" id="connector1pin" r="2.088" stroke-width="2.16"/>
       <circle fill="black" cx="5.04" gorn="0.1.0.3"  cy="19.44" stroke="black" id="connector2pin" r="2.088" stroke-width="2.16"/>
      </g>
     </g>
    </g>
   </g>
  </g>
  <g partID="1526051">
   <g transform="translate(134.96,90.031)">
    <g gorn="0.1"  id="copper1">
     <g gorn="0.1.0"  id="copper0">
      <rect width="4.176" x="2.952" y="2.952" fill="black" gorn="0.1.0.0"  height="4.176" stroke="black" id="square" stroke-width="2.16"/>
      <circle fill="black" cx="5.04" gorn="0.1.0.1"  cy="5.04" stroke="black" id="connector0pin" r="2.088" stroke-width="2.16"/>
      <circle fill="black" cx="5.04" gorn="0.1.0.2"  cy="12.24" stroke="black" id="connector1pin" r="2.088" stroke-width="2.16"/>
      <circle fill="black" cx="5.04" gorn="0.1.0.3"  cy="19.44" stroke="black" id="connector2pin" r="2.088" stroke-width="2.16"/>
     </g>
    </g>
   </g>
  </g>
  <g partID="1532411">
   <g transform="translate(180.32,48.991)">
    <g transform="matrix(-1,0,0,-1,0,0)">
     <g gorn="0.2"  id="copper1">
      <g gorn="0.2.0"  id="copper0">
       <rect width="3.96" x="2.34" y="2.34" fill="black" gorn="0.2.0.0"  height="3.96" stroke="black" id="square" stroke-width="2.16"/>
       <circle fill="black" cx="4.32" gorn="0.2.0.1"  cy="4.32" stroke="black" id="connector0pin" r="1.98" stroke-width="2.16"/>
       <circle fill="black" cx="25.92" gorn="0.2.0.2"  cy="4.32" stroke="black" id="connector7pin" r="1.98" stroke-width="2.16"/>
       <circle fill="black" cx="4.32" gorn="0.2.0.3"  cy="11.52" stroke="black" id="connector1pin" r="1.98" stroke-width="2.16"/>
       <circle fill="black" cx="25.92" gorn="0.2.0.4"  cy="11.52" stroke="black" id="connector6pin" r="1.98" stroke-width="2.16"/>
       <circle fill="black" cx="4.32" gorn="0.2.0.5"  cy="18.72" stroke="black" id="connector2pin" r="1.98" stroke-width="2.16"/>
       <circle fill="black" cx="25.92" gorn="0.2.0.6"  cy="18.72" stroke="black" id="connector5pin" r="1.98" stroke-width="2.16"/>
       <circle fill="black" cx="4.32" gorn="0.2.0.7"  cy="25.92" stroke="black" id="connector3pin" r="1.98" stroke-width="2.16"/>
       <circle fill="black" cx="25.92" gorn="0.2.0.8"  cy="25.92" stroke="black" id="connector4pin" r="1.98" stroke-width="2.16"/>
      </g>
     </g>
    </g>
   </g>
  </g>
  <g partID="1487111">
   <g transform="translate(182.192,41.071)">
    <g transform="matrix(0,-1,1,0,0,0)">
     <g  id="copper1">
      <g  id="copper0">
       <rect width="3.96" x="16.02" y="6.228" fill="black"  height="3.96" stroke="black" id="rect10" stroke-width="2.16"/>
       <circle fill="black" cx="3.6"  cy="8.208" stroke="black" id="connector0pin" r="1.98" stroke-width="2.16"/>
       <circle fill="black" cx="10.8"  cy="8.208" stroke="black" id="connector1pin" r="1.98" stroke-width="2.16"/>
       <circle fill="black" cx="18"  cy="8.208" stroke="black" id="connector2pin" r="1.98" stroke-width="2.16"/>
      </g>
     </g>
    </g>
   </g>
  </g>
  <g partID="1488531">
   <g transform="translate(14.9,55.975)">
    <g  id="copper1">
     <!-- <rect width="55" x="10" y="15.5" fill="none" height="55" stroke="rgb(255, 191, 0)" stroke-width="20" />  -->
     <circle fill="black" cx="2.7"  cy="3.096" stroke="black" r="1.98" id="connector0pin" stroke-width="2.16"/>
     <circle fill="black" cx="31.5"  cy="3.096" stroke="black" r="1.98" id="connector1pin" stroke-width="2.16"/>
    </g>
   </g>
  </g>
  <g partID="1488471">
   <g transform="translate(58.1,55.975)">
    <g  id="copper1">
     <!-- <rect width="55" x="10" y="15.5" fill="none" height="55" stroke="rgb(255, 191, 0)" stroke-width="20" />  -->
     <circle fill="black" cx="2.7"  cy="3.096" stroke="black" r="1.98" id="connector0pin" stroke-width="2.16"/>
     <circle fill="black" cx="31.5"  cy="3.096" stroke="black" r="1.98" id="connector1pin" stroke-width="2.16"/>
    </g>
   </g>
  </g>
  <g partID="1759541">
   <g transform="translate(122.504,97.771)">
    <g transform="matrix(0,-1,1,0,0,0)">
     <g  id="copper1">
      <!-- <rect width="55" x="10" y="15.5" fill="none" height="55" stroke="rgb(255, 191, 0)" stroke-width="20" />  -->
      <circle fill="black" cx="2.7"  cy="3.096" stroke="black" r="1.98" id="connector0pin" stroke-width="2.16"/>
      <circle fill="black" cx="31.5"  cy="3.096" stroke="black" r="1.98" id="connector1pin" stroke-width="2.16"/>
     </g>
    </g>
   </g>
  </g>
  <g partID="25441">
   <g transform="translate(-93.7163,145.471)">
    <g transform="matrix(0,-1,1,0,0,0)">
     <g  id="copper1">
      <g  id="copper0">
       <circle fill="black" cx="7.2"  cy="104.116" stroke="black" id="connector22pad" r="2.052" stroke-width="1.72"/>
       <circle fill="black" cx="7.2"  cy="111.316" stroke="black" id="connector23pad" r="2.052" stroke-width="1.72"/>
       <circle fill="black" cx="7.2"  cy="118.517" stroke="black" id="connector24pad" r="2.052" stroke-width="1.72"/>
       <circle fill="black" cx="7.2"  cy="125.716" stroke="black" id="connector25pad" r="2.052" stroke-width="1.72"/>
       <circle fill="black" cx="7.2"  cy="132.917" stroke="black" id="connector26pad" r="2.052" stroke-width="1.72"/>
       <circle fill="black" cx="7.2"  cy="140.116" stroke="black" id="connector27pad" r="2.052" stroke-width="1.72"/>
       <circle fill="black" cx="7.2"  cy="147.316" stroke="black" id="connector28pad" r="2.052" stroke-width="1.72"/>
       <circle fill="black" cx="7.2"  cy="154.517" stroke="black" id="connector29pad" r="2.052" stroke-width="1.72"/>
       <circle fill="black" cx="7.2"  cy="161.716" stroke="black" id="connector30pad" r="2.052" stroke-width="1.72"/>
       <circle fill="black" cx="7.2"  cy="168.917" stroke="black" id="connector31pad" r="2.052" stroke-width="1.72"/>
       <circle fill="black" cx="7.2"  cy="176.116" stroke="black" id="connector32pad" r="2.052" stroke-width="1.72"/>
       <circle fill="black" cx="7.2"  cy="183.316" stroke="black" id="connector33pad" r="2.052" stroke-width="1.72"/>
       <circle fill="black" cx="7.2"  cy="190.517" stroke="black" id="connector34pad" r="2.052" stroke-width="1.72"/>
       <circle fill="black" cx="7.2"  cy="197.716" stroke="black" id="connector35pad" r="2.052" stroke-width="1.72"/>
       <circle fill="black" cx="72"  cy="104.116" stroke="black" id="connector48pad" r="2.052" stroke-width="1.72"/>
       <circle fill="black" cx="72"  cy="111.316" stroke="black" id="connector49pad" r="2.052" stroke-width="1.72"/>
       <circle fill="black" cx="72"  cy="118.517" stroke="black" id="connector50pad" r="2.052" stroke-width="1.72"/>
       <circle fill="black" cx="72"  cy="125.716" stroke="black" id="connector51pad" r="2.052" stroke-width="1.72"/>
       <circle fill="black" cx="72"  cy="132.917" stroke="black" id="connector52pad" r="2.052" stroke-width="1.72"/>
       <circle fill="black" cx="72"  cy="140.116" stroke="black" id="connector53pad" r="2.052" stroke-width="1.72"/>
       <circle fill="black" cx="72"  cy="147.316" stroke="black" id="connector54pad" r="2.052" stroke-width="1.72"/>
       <circle fill="black" cx="72"  cy="154.517" stroke="black" id="connector55pad" r="2.052" stroke-width="1.72"/>
       <circle fill="black" cx="72"  cy="161.716" stroke="black" id="connector56pad" r="2.052" stroke-width="1.72"/>
       <circle fill="black" cx="72"  cy="168.917" stroke="black" id="connector57pad" r="2.052" stroke-width="1.72"/>
       <circle fill="black" cx="72"  cy="176.116" stroke="black" id="connector58pad" r="2.052" stroke-width="1.72"/>
       <circle fill="black" cx="72"  cy="183.316" stroke="black" id="connector59pad" r="2.052" stroke-width="1.72"/>
       <circle fill="black" cx="72"  cy="190.517" stroke="black" id="connector60pad" r="2.052" stroke-width="1.72"/>
       <circle fill="black" cx="72"  cy="197.716" stroke="black" id="connector61pad" r="2.052" stroke-width="1.72"/>
      </g>
     </g>
    </g>
   </g>
  </g>
  <g partID="1435461">
   <g transform="translate(75.2,177.871)">
    <g transform="matrix(-1,0,0,-1,0,0)">
     <g  id="copper1">
      <path stroke-opacity="1" fill="black"  stroke="black" style="stroke-linecap:round;stroke-linejoin:round;stroke-miterlimit:4;stroke-dasharray:none;stroke-dashoffset:0;display:inline" id="connector1pad" stroke-width="2.16" d="m9,3.6a1.8,1.8,0,0,1,-3.6,0,1.8,1.8,0,1,1,3.6,0z"/>
      <path stroke-opacity="1" fill="black"  stroke="black" style="stroke-linecap:round;stroke-linejoin:round;stroke-miterlimit:4;stroke-dasharray:none;stroke-dashoffset:0;display:inline" id="connector2pad" stroke-width="2.16" d="m16.2,3.6a1.8,1.8,0,0,1,-3.6,0,1.8,1.8,0,1,1,3.6,0z"/>
      <path stroke-opacity="1" fill="black"  stroke="black" style="stroke-linecap:round;stroke-linejoin:round;stroke-miterlimit:4;stroke-dasharray:none;stroke-dashoffset:0;display:inline" id="connector3pad" stroke-width="2.16" d="m23.4,3.6a1.8,1.8,0,0,1,-3.6,0,1.8,1.8,0,1,1,3.6,0z"/>
      <path stroke-opacity="1" fill="black"  stroke="black" style="stroke-linecap:round;stroke-linejoin:round;stroke-miterlimit:4;stroke-dasharray:none;stroke-dashoffset:0;display:inline" id="connector4pad" stroke-width="2.16" d="m30.6,3.6a1.8,1.8,0,0,1,-3.6,0,1.8,1.8,0,1,1,3.6,0z"/>
      <path stroke-opacity="1" fill="black"  stroke="black" style="stroke-linecap:round;stroke-linejoin:round;stroke-miterlimit:4;stroke-dasharray:none;stroke-dashoffset:0;display:inline" id="connector5pad" stroke-width="2.16" d="m37.8,3.6a1.8,1.8,0,0,1,-3.6,0,1.8,1.8,0,1,1,3.6,0z"/>
      <path stroke-opacity="1" fill="black"  stroke="black" style="stroke-linecap:round;stroke-linejoin:round;stroke-miterlimit:4;stroke-dasharray:none;stroke-dashoffset:0;display:inline" id="connector6pad" stroke-width="2.16" d="m45,3.6a1.8,1.8,0,0,1,-3.6,0,1.8,1.8,0,1,1,3.6,0z"/>
      <path stroke-opacity="1" fill="black"  stroke="black" style="stroke-linecap:round;stroke-linejoin:round;stroke-miterlimit:4;stroke-dasharray:none;stroke-dashoffset:0;display:inline" id="connector7pad" stroke-width="2.16" d="m52.2,3.6a1.8,1.8,0,0,1,-3.6,0,1.8,1.8,0,1,1,3.6,0z"/>
      <path stroke-opacity="1" fill="black"  stroke="black" style="stroke-linecap:round;stroke-linejoin:round;stroke-miterlimit:4;stroke-dasharray:none;stroke-dashoffset:0;display:inline" id="connector8pad" stroke-width="2.16" d="m59.4057,3.6a1.8,1.8,0,0,1,-3.6,0,1.8,1.8,0,1,1,3.6,0z"/>
      <path stroke-opacity="1" fill="black"  stroke="black" style="stroke-linecap:round;stroke-linejoin:round;stroke-miterlimit:4;stroke-dasharray:none;stroke-dashoffset:0;display:inline" id="connector9pad" stroke-width="2.16" d="m66.6057,3.6a1.8,1.8,0,0,1,-3.6,0,1.8,1.8,0,1,1,3.6,0z"/>
     </g>
    </g>
   </g>
  </g>
  <g partID="1437011">
   <g transform="translate(10.4,19.471)">
    <g  id="copper1">
     <path stroke-opacity="1" fill="black"  stroke="black" style="stroke-linecap:round;stroke-linejoin:round;stroke-miterlimit:4;stroke-dasharray:none;stroke-dashoffset:0;display:inline" id="connector1pad" stroke-width="2.16" d="m9,3.6a1.8,1.8,0,0,1,-3.6,0,1.8,1.8,0,1,1,3.6,0z"/>
     <path stroke-opacity="1" fill="black"  stroke="black" style="stroke-linecap:round;stroke-linejoin:round;stroke-miterlimit:4;stroke-dasharray:none;stroke-dashoffset:0;display:inline" id="connector2pad" stroke-width="2.16" d="m16.2,3.6a1.8,1.8,0,0,1,-3.6,0,1.8,1.8,0,1,1,3.6,0z"/>
     <path stroke-opacity="1" fill="black"  stroke="black" style="stroke-linecap:round;stroke-linejoin:round;stroke-miterlimit:4;stroke-dasharray:none;stroke-dashoffset:0;display:inline" id="connector3pad" stroke-width="2.16" d="m23.4,3.6a1.8,1.8,0,0,1,-3.6,0,1.8,1.8,0,1,1,3.6,0z"/>
     <path stroke-opacity="1" fill="black"  stroke="black" style="stroke-linecap:round;stroke-linejoin:round;stroke-miterlimit:4;stroke-dasharray:none;stroke-dashoffset:0;display:inline" id="connector4pad" stroke-width="2.16" d="m30.6,3.6a1.8,1.8,0,0,1,-3.6,0,1.8,1.8,0,1,1,3.6,0z"/>
     <path stroke-opacity="1" fill="black"  stroke="black" style="stroke-linecap:round;stroke-linejoin:round;stroke-miterlimit:4;stroke-dasharray:none;stroke-dashoffset:0;display:inline" id="connector5pad" stroke-width="2.16" d="m37.8,3.6a1.8,1.8,0,0,1,-3.6,0,1.8,1.8,0,1,1,3.6,0z"/>
     <path stroke-opacity="1" fill="black"  stroke="black" style="stroke-linecap:round;stroke-linejoin:round;stroke-miterlimit:4;stroke-dasharray:none;stroke-dashoffset:0;display:inline" id="connector6pad" stroke-width="2.16" d="m45,3.6a1.8,1.8,0,0,1,-3.6,0,1.8,1.8,0,1,1,3.6,0z"/>
     <path stroke-opacity="1" fill="black"  stroke="black" style="stroke-linecap:round;stroke-linejoin:round;stroke-miterlimit:4;stroke-dasharray:none;stroke-dashoffset:0;display:inline" id="connector7pad" stroke-width="2.16" d="m52.2,3.6a1.8,1.8,0,0,1,-3.6,0,1.8,1.8,0,1,1,3.6,0z"/>
    </g>
   </g>
  </g>
  <g partID="1440111">
   <g transform="translate(122.576,231.868)">
    <g transform="matrix(-1,0,0,-1,0,0)">
     <g  id="copper1" stroke-width="0">
      <g  id="copper0" stroke-width="0">
       <circle fill="black" cx="4.17543"  cy="64.7972" connectorname="DTR" stroke="black" r="2.052" id="connector12pad" stroke-width="1.944"/>
       <circle fill="black" cx="11.3754"  cy="64.7972" connectorname="RXI" stroke="black" r="2.052" id="connector13pad" stroke-width="1.944"/>
       <circle fill="black" cx="18.5754"  cy="64.7972" connectorname="TXO" stroke="black" r="2.052" id="connector14pad" stroke-width="1.944"/>
       <circle fill="black" cx="25.7754"  cy="64.7972" connectorname="RAW" stroke="black" r="2.052" id="connector15pad" stroke-width="1.944"/>
       <circle fill="black" cx="32.9754"  cy="64.7972" connectorname="GND" stroke="black" r="2.052" id="connector16pad" stroke-width="1.944"/>
       <circle fill="black" cx="40.1754"  cy="64.7972" connectorname="GND" stroke="black" r="2.052" id="connector17pad" stroke-width="1.944"/>
       <circle fill="black" cx="11.3754"  cy="17.9972" connectorname="RST" stroke="black" r="2.052" id="connector18pad" stroke-width="1.944"/>
       <rect width="4.104" x="9.32343" y="15.9452" fill="black"  height="4.104" stroke="black" stroke-width="1.944"/>
       <circle fill="black" cx="18.5754"  cy="17.9972" connectorname="SCK" stroke="black" r="2.052" id="connector19pad" stroke-width="1.944"/>
       <circle fill="black" cx="25.7754"  cy="17.9972" connectorname="MOSI" stroke="black" r="2.052" id="connector20pad" stroke-width="1.944"/>
       <circle fill="black" cx="32.9754"  cy="17.9972" connectorname="MISO" stroke="black" r="2.052" id="connector21pad" stroke-width="1.944"/>
      </g>
     </g>
    </g>
   </g>
  </g>
  <g partID="1446721">
   <g transform="translate(209.12,128.191)">
    <g transform="matrix(-1,0,0,-1,0,0)">
     <g  id="copper1">
      <g  id="copper0">
       <rect width="3.96" x="2.34" y="2.34" fill="black"  height="3.96" stroke="black" id="square" stroke-width="2.16"/>
       <circle fill="black" cx="4.32"  cy="4.32" stroke="black" id="connector0pin" r="1.98" stroke-width="2.16"/>
       <circle fill="black" cx="25.92"  cy="4.32" stroke="black" id="connector15pin" r="1.98" stroke-width="2.16"/>
       <circle fill="black" cx="4.32"  cy="11.52" stroke="black" id="connector1pin" r="1.98" stroke-width="2.16"/>
       <circle fill="black" cx="25.92"  cy="11.52" stroke="black" id="connector14pin" r="1.98" stroke-width="2.16"/>
       <circle fill="black" cx="4.32"  cy="18.72" stroke="black" id="connector2pin" r="1.98" stroke-width="2.16"/>
       <circle fill="black" cx="25.92"  cy="18.72" stroke="black" id="connector13pin" r="1.98" stroke-width="2.16"/>
       <circle fill="black" cx="4.32"  cy="25.92" stroke="black" id="connector3pin" r="1.98" stroke-width="2.16"/>
       <circle fill="black" cx="25.92"  cy="25.92" stroke="black" id="connector12pin" r="1.98" stroke-width="2.16"/>
       <circle fill="black" cx="4.32"  cy="33.12" stroke="black" id="connector4pin" r="1.98" stroke-width="2.16"/>
       <circle fill="black" cx="25.92"  cy="33.12" stroke="black" id="connector11pin" r="1.98" stroke-width="2.16"/>
       <circle fill="black" cx="4.32"  cy="40.32" stroke="black" id="connector5pin" r="1.98" stroke-width="2.16"/>
       <circle fill="black" cx="25.92"  cy="40.32" stroke="black" id="connector10pin" r="1.98" stroke-width="2.16"/>
       <circle fill="black" cx="4.32"  cy="47.52" stroke="black" id="connector6pin" r="1.98" stroke-width="2.16"/>
       <circle fill="black" cx="25.92"  cy="47.52" stroke="black" id="connector9pin" r="1.98" stroke-width="2.16"/>
       <circle fill="black" cx="4.32"  cy="54.72" stroke="black" id="connector7pin" r="1.98" stroke-width="2.16"/>
       <circle fill="black" cx="25.92"  cy="54.72" stroke="black" id="connector8pin" r="1.98" stroke-width="2.16"/>
      </g>
     </g>
    </g>
   </g>
  </g>
  <g partID="1450061">
   <g transform="translate(205.16,47.911)">
    <g transform="matrix(0,1,-1,0,0,0)">
     <g  id="copper1">
      <g  id="copper0">
       <rect width="3.96" x="1.98" y="5.58" fill="black"  height="3.96" stroke="black" id="rect11" stroke-width="2.16"/>
       <circle fill="black" cx="3.96"  cy="7.56" stroke="black" r="1.98" id="connector0pin" stroke-width="2.16"/>
       <circle fill="black" cx="11.16"  cy="7.56" stroke="black" r="1.98" id="connector1pin" stroke-width="2.16"/>
      </g>
     </g>
    </g>
   </g>
  </g>
  <g partID="1453761">
   <g transform="translate(223.304,68.971)">
    <g transform="matrix(0,-1,1,0,0,0)">
     <g  id="copper1">
      <!-- <rect width="55" x="10" y="15.5" fill="none" height="55" stroke="rgb(255, 191, 0)" stroke-width="20" />  -->
      <circle fill="black" cx="2.7"  cy="3.096" stroke="black" r="1.98" id="connector0pin" stroke-width="2.16"/>
      <circle fill="black" cx="31.5"  cy="3.096" stroke="black" r="1.98" id="connector1pin" stroke-width="2.16"/>
     </g>
    </g>
   </g>
  </g>
  <g partID="1454951">
   <g transform="translate(208.904,68.971)">
    <g transform="matrix(0,-1,1,0,0,0)">
     <g  id="copper1">
      <!-- <rect width="55" x="10" y="15.5" fill="none" height="55" stroke="rgb(255, 191, 0)" stroke-width="20" />  -->
      <circle fill="black" cx="2.7"  cy="3.096" stroke="black" r="1.98" id="connector0pin" stroke-width="2.16"/>
      <circle fill="black" cx="31.5"  cy="3.096" stroke="black" r="1.98" id="connector1pin" stroke-width="2.16"/>
     </g>
    </g>
   </g>
  </g>
  <g partID="1454981">
   <g transform="translate(216.104,68.971)">
    <g transform="matrix(0,-1,1,0,0,0)">
     <g  id="copper1">
      <!-- <rect width="55" x="10" y="15.5" fill="none" height="55" stroke="rgb(255, 191, 0)" stroke-width="20" />  -->
      <circle fill="black" cx="2.7"  cy="3.096" stroke="black" r="1.98" id="connector0pin" stroke-width="2.16"/>
      <circle fill="black" cx="31.5"  cy="3.096" stroke="black" r="1.98" id="connector1pin" stroke-width="2.16"/>
     </g>
    </g>
   </g>
  </g>
  <g partID="1455091">
   <g transform="translate(220.788,33.8174)">
    <g transform="matrix(-1,0,0,-1,0,0)">
     <g  id="copper1">
      <circle fill="black" cx="8.7876"  cy="10.6336" stroke="black" id="connector1pad" r="1.7008" stroke-width="1.85384"/>
      <rect width="3.4016" x="7.0868" y="8.9328" fill="black"  height="3.4016" stroke="black" stroke-width="1.85384"/>
      <circle fill="black" cx="8.7876"  cy="3.5464" stroke="black" id="connector0pad" r="1.7008" stroke-width="1.85384"/>
     </g>
    </g>
   </g>
  </g>
  <g partID="1455301">
   <g transform="translate(227.988,33.8174)">
    <g transform="matrix(-1,0,0,-1,0,0)">
     <g  id="copper1">
      <circle fill="black" cx="8.7876"  cy="10.6336" stroke="black" id="connector1pad" r="1.7008" stroke-width="1.85384"/>
      <rect width="3.4016" x="7.0868" y="8.9328" fill="black"  height="3.4016" stroke="black" stroke-width="1.85384"/>
      <circle fill="black" cx="8.7876"  cy="3.5464" stroke="black" id="connector0pad" r="1.7008" stroke-width="1.85384"/>
     </g>
    </g>
   </g>
  </g>
  <g partID="1456121">
   <g transform="translate(235.188,33.8174)">
    <g transform="matrix(-1,0,0,-1,0,0)">
     <g  id="copper1">
      <circle fill="black" cx="8.7876"  cy="10.6336" stroke="black" id="connector1pad" r="1.7008" stroke-width="1.85384"/>
      <rect width="3.4016" x="7.0868" y="8.9328" fill="black"  height="3.4016" stroke="black" stroke-width="1.85384"/>
      <circle fill="black" cx="8.7876"  cy="3.5464" stroke="black" id="connector0pad" r="1.7008" stroke-width="1.85384"/>
     </g>
    </g>
   </g>
  </g>
  <g partID="1461791">
   <g transform="translate(133.16,112.711)">
    <g transform="matrix(0,1,-1,0,0,0)">
     <g  id="copper1">
      <g  id="copper0">
       <rect width="3.96" x="1.98" y="5.58" fill="black"  height="3.96" stroke="black" id="rect11" stroke-width="2.16"/>
       <circle fill="black" cx="3.96"  cy="7.56" stroke="black" r="1.98" id="connector0pin" stroke-width="2.16"/>
       <circle fill="black" cx="11.16"  cy="7.56" stroke="black" r="1.98" id="connector1pin" stroke-width="2.16"/>
      </g>
     </g>
    </g>
   </g>
  </g>
  <g partID="1463531">
   <g transform="translate(144.104,140.971)">
    <g transform="matrix(0,-1,1,0,0,0)">
     <g  id="copper1">
      <!-- <rect width="55" x="10" y="15.5" fill="none" height="55" stroke="rgb(255, 191, 0)" stroke-width="20" />  -->
      <circle fill="black" cx="2.7"  cy="3.096" stroke="black" r="1.98" id="connector0pin" stroke-width="2.16"/>
      <circle fill="black" cx="31.5"  cy="3.096" stroke="black" r="1.98" id="connector1pin" stroke-width="2.16"/>
     </g>
    </g>
   </g>
  </g>
  <g partID="1471471">
   <g transform="translate(29.84,56.911)">
    <g transform="matrix(-1,0,0,-1,0,0)">
     <g  id="copper1">
      <g  id="copper0">
       <rect width="4.176" x="2.952" y="2.952" fill="black"  height="4.176" stroke="black" id="square" stroke-width="2.16"/>
       <circle fill="black" cx="5.04"  cy="5.04" stroke="black" id="connector0pin" r="2.088" stroke-width="2.16"/>
       <circle fill="black" cx="5.04"  cy="12.24" stroke="black" id="connector1pin" r="2.088" stroke-width="2.16"/>
      </g>
     </g>
    </g>
   </g>
  </g>
  <g partID="1783031">
   <g transform="translate(156.2,87.871)">
    <g gorn="0.2"  id="copper1" stroke-width="0">
     <g gorn="0.2.0"  id="copper0" stroke-width="0">
      <circle fill="black" cx="5.4" gorn="0.2.0.0"  cy="7.2" connectorname="ST" stroke="black" r="2.052" id="connector8pad" stroke-width="1.944"/>
      <circle fill="black" cx="5.4" gorn="0.2.0.1"  cy="14.4" connectorname="ZOUT" stroke="black" r="2.052" id="connector9pad" stroke-width="1.944"/>
      <circle fill="black" cx="5.4" gorn="0.2.0.2"  cy="21.6" connectorname="YOUT" stroke="black" r="2.052" id="connector10pad" stroke-width="1.944"/>
      <circle fill="black" cx="5.4" gorn="0.2.0.3"  cy="28.8" connectorname="XOUT" stroke="black" r="2.052" id="connector11pad" stroke-width="1.944"/>
      <circle fill="black" cx="5.4" gorn="0.2.0.4"  cy="36" connectorname="GND" stroke="black" r="2.052" id="connector12pad" stroke-width="1.944"/>
      <circle fill="black" cx="5.4" gorn="0.2.0.5"  cy="43.2" connectorname="VCC" stroke="black" r="2.052" id="connector13pad" stroke-width="1.944"/>
     </g>
    </g>
   </g>
  </g>
  <g partID="1806751">
   <g transform="translate(113.648,97.519)">
    <g  id="copper1">
     <circle fill="black" cx="4.752"  cy="4.752" stroke="black" r="1.98" id="connector0pad" stroke-width="2.16"/>
     <circle fill="black" cx="4.752"  cy="40.752" stroke="black" r="1.98" id="connector1pad" stroke-width="2.16"/>
    </g>
   </g>
  </g>
 </g>
</svg>
